HIERARCHY
ROOT Hips
{
  OFFSET -35.4901 99.2528 17.4586
  CHANNELS 6 Xposition Yposition Zposition Zrotation Xrotation Yrotation
  JOINT LeftUpLeg
  {
    OFFSET 8.64259 1.95398 -2.38835
    CHANNELS 3 Zrotation Xrotation Yrotation
    JOINT LeftLeg
    {
      OFFSET 43.7702 0 0
      CHANNELS 3 Zrotation Xrotation Yrotation
      JOINT LeftFoot
      {
        OFFSET 40.6238 0 0
        CHANNELS 3 Zrotation Xrotation Yrotation
        JOINT LeftToeBase
        {
          OFFSET 12.7242 0 0
          CHANNELS 3 Zrotation Xrotation Yrotation
          End Site
          {
            OFFSET 0 0 0
          }
        }
      }
    }
  }
  JOINT RightUpLeg
  {
    OFFSET -8.2249 1.95398 -2.59336
    CHANNELS 3 Zrotation Xrotation Yrotation
    JOINT RightLeg
    {
      OFFSET 43.5653 0 0
      CHANNELS 3 Zrotation Xrotation Yrotation
      JOINT RightFoot
      {
        OFFSET 40.6238 0 0
        CHANNELS 3 Zrotation Xrotation Yrotation
        JOINT RightToeBase
        {
          OFFSET 12.7242 0 0
          CHANNELS 3 Zrotation Xrotation Yrotation
          End Site
          {
            OFFSET 0 0 0
          }
        }
      }
    }
  }
  JOINT Spine
  {
    OFFSET 0.165834 0.87714 6.61349
    CHANNELS 3 Zrotation Xrotation Yrotation
    JOINT Spine1
    {
      OFFSET 7.38963 1.71661e-005 0
      CHANNELS 3 Zrotation Xrotation Yrotation
      JOINT Spine2
      {
        OFFSET 11.9445 1.14441e-005 0
        CHANNELS 3 Zrotation Xrotation Yrotation
        JOINT Spine3
        {
          OFFSET 14.7254 4.19617e-005 0
          CHANNELS 3 Zrotation Xrotation Yrotation
          JOINT Spine4
          {
            OFFSET 10.9679 0 0
            CHANNELS 3 Zrotation Xrotation Yrotation
            JOINT RightShoulder
            {
              OFFSET 2.46616 -1.6653 3.69651
              CHANNELS 3 Zrotation Xrotation Yrotation
              JOINT RightArm
              {
                OFFSET 13.0012 0 0
                CHANNELS 3 Zrotation Xrotation Yrotation
                JOINT RightForeArm
                {
                  OFFSET 28.7848 1.52588e-005 0
                  CHANNELS 3 Zrotation Xrotation Yrotation
                  JOINT RightHand
                  {
                    OFFSET 26.5688 1.52588e-005 0
                    CHANNELS 3 Zrotation Xrotation Yrotation
                    End Site
                    {
                      OFFSET 0 0 0
                    }
                  }
                }
              }
            }
            JOINT LeftShoulder
            {
              OFFSET 2.38034 -1.29275 -3.7523
              CHANNELS 3 Zrotation Xrotation Yrotation
              JOINT LeftArm
              {
                OFFSET 16.3182 6.10351e-005 0
                CHANNELS 3 Zrotation Xrotation Yrotation
                JOINT LeftForeArm
                {
                  OFFSET 27.0901 0 0
                  CHANNELS 3 Zrotation Xrotation Yrotation
                  JOINT LeftHand
                  {
                    OFFSET 24.5451 1.52588e-005 0
                    CHANNELS 3 Zrotation Xrotation Yrotation
                    End Site
                    {
                      OFFSET 0 0 0
                    }
                  }
                }
              }
            }
            JOINT Neck
            {
              OFFSET 5.0226 -0.0266342 0
              CHANNELS 3 Zrotation Xrotation Yrotation
              JOINT Head
              {
                OFFSET 6.69364 2.86102e-005 0
                CHANNELS 3 Zrotation Xrotation Yrotation
                End Site
                {
                  OFFSET 0 0 0
                }
              }
            }
          }
        }
      }
    }
  }
}
MOTION
Frames:	12
Frame Time:	0.0416667
-306.385 89.7345 296.289 -102.176 -41.7439 -98.629 -171.964 6.7175 93.7036 -44.1851 18.4943 -2.46523 86.6967 11.3052 -1.22978 15.9614 0.78653 -0.0380253 175.374 18.775 87.8681 -14.273 -11.6957 -1.19769 50.9851 0.804455 1.8568 23.5998 0.0297639 0.613404 0.863015 8.50875 -90.4814 9.863 1.50185 -1.07611 -1.80759 1.45302 -1.14117 -24.3484 1.75581 -0.574911 -4.33576 1.7558 -0.57492 91.0072 -29.5439 -104.92 37.6283 -4.08971 -0.582899 4.19206 -12.3044 -13.3141 -23.5882 0.193112 -7.42525 -85.8429 -50.2907 85.0107 -21.8099 5.57674 -35.2951 13.3848 19.0602 -20.2558 0.717069 -0.286664 -11.6339 2.80913 -0.929503 -7.42027 -4.60247 0.317337 -0.778195 
-303.301 91.4949 294.417 -105.668 -41.226 -101.654 -173.063 3.15605 92.0472 -37.2459 17.806 -2.48771 81.6151 9.43333 -0.42481 15.7239 1.08149 -0.405783 171.597 17.9033 87.3927 -25.8233 0.830796 0.0349326 58.6741 -1.81175 -0.642328 22.5004 -0.572859 2.13278 0.461969 8.39004 -89.9211 10.0918 0.95649 0.077386 -1.57885 0.95898 0.0351967 -24.1163 0.889003 0.361292 -4.10367 0.889042 0.3613 88.8979 -32.9718 -107.764 36.2005 -6.30492 -2.30629 3.84484 -15.033 -14.1299 -25.1195 0.358089 -8.4398 -83.8936 -45.9455 87.4388 -20.4763 3.79606 -26.7757 14.0521 11.1652 -29.4269 5.52302 -0.456688 -9.55948 -3.87371 0.136544 -10.9276 -3.22432 1.29752 1.65883 
-300.497 92.8172 292.995 -108.456 -41.3 -103.978 -175.005 0.17689 90.1481 -31.5783 16.6644 -1.35047 78.0727 8.01127 0.583862 12.9704 0.985476 -0.0409243 169.002 14.8989 84.7192 -45.6671 -1.61543 0.29879 65.4213 -3.85509 -0.086398 24.8602 -0.694519 2.17938 0.366016 8.27218 -90.0798 10.3324 0.692798 -0.213975 -1.33836 0.6827 -0.244256 -23.8752 0.725054 0.00413976 -3.86259 0.725067 0.00414555 90.9023 -29.8181 -105.001 35.4825 -9.26912 -5.24444 1.9651 -25.2029 -16.6791 -23.4967 0.144332 -9.01674 -83.3152 -48.2321 88.5963 -20.8753 4.10036 -16.4754 10.3427 5.54862 -28.7461 6.41542 -0.560172 -10.5173 -10.0925 0.32301 -4.6018 -3.2842 0.61372 -1.12644 
-298.109 93.3194 291.042 -108.757 -41.7219 -104.857 -175.731 0.531343 88.7191 -28.384 16.9276 -1.19966 74.6299 6.70459 0.691853 12.6379 0.284117 0.863272 167.916 7.39163 81.4064 -58.6431 -5.97231 -0.887254 66.8 -4.1622 -0.369325 24.8132 -0.414992 1.54389 0.448195 7.96544 -90.1142 10.9444 0.839519 -0.308257 -0.726288 0.825125 -0.344915 -23.2637 0.893333 -0.0416721 -3.25109 0.893323 -0.041683 89.5 -27.4124 -108.807 34.5045 -7.44057 -5.13234 0.518548 -25.1827 -17.966 -25.031 0.0543867 -8.29772 -81.3123 -51.4946 91.9154 -20.388 8.1838 -5.70378 6.75814 3.08558 -25.5177 4.27511 -0.384192 -9.3674 -13.7575 0.153768 -1.13893 -4.99491 0.266772 -3.65718 
-295.382 93.3429 288.441 -110.001 -40.7994 -106.853 -176.205 1.19493 87.4872 -26.6324 15.9962 -1.51672 71.4321 5.51058 0.644189 12.4048 0.238428 0.936498 166.89 -5.08424 77.3748 -55.8405 -13.606 -3.22827 66.6915 -3.95136 -0.348623 25.2834 -0.895747 2.68438 0.874975 7.98377 -89.9931 10.9085 1.7453 -0.150839 -0.761262 1.73695 -0.22754 -23.3055 1.70992 0.380825 -3.2929 1.70993 0.380822 89.0151 -25.2569 -110.8 33.051 -7.00531 -6.79532 1.82374 -25.595 -16.6069 -24.5197 0.123905 -8.78252 -79.385 -55.5476 94.9073 -19.4284 10.5403 2.2591 2.21175 -0.577403 -16.5218 3.56186 -0.26686 -7.7707 -14.4401 -1.14924 -0.12443 -5.79821 -0.980985 -5.36912 
-290.89 92.5324 281.638 -103.295 -40.8779 -98.9576 -174.672 12.6916 92.6363 -27.9445 17.8391 -1.73356 67.6554 3.92269 0.681382 11.2697 -0.158623 1.49312 171.076 -9.38259 84.5703 -42.8663 -18.4412 -4.27229 69.6458 -5.02649 -1.46365 29.3607 -1.08569 3.20951 1.3015 7.47291 -90.3116 11.9442 2.4417 -0.873247 0.275161 2.40088 -0.979915 -22.2782 2.59122 -0.0985949 -2.26555 2.59123 -0.09859 89.6312 -24.6074 -109.796 31.0978 -6.03698 -11.3508 0.939268 -28.8214 -16.7716 -23.795 -0.0222548 -8.89341 -78.272 -59.5767 96.5364 -18.4433 15.3012 6.27954 -3.92919 -16.1631 -2.47162 4.23636 -0.155505 -5.24637 -12.7398 -2.13252 1.4365 -6.71501 -1.88997 -7.4185 
-285.126 92.209 276.523 -104.355 -35.6954 -101.206 -176.581 10.318 89.6248 -17.3206 10.9398 -1.41026 59.3198 1.00058 -0.987132 12.3596 -1.11776 2.65024 167.91 -12.9191 79.4012 -31.8193 -27.6114 -6.71658 77.0849 -8.8592 -3.65044 39.4535 -2.2262 6.17748 1.62476 8.10133 -90.0714 10.6812 3.2027 -0.439348 -0.985894 3.18025 -0.580028 -23.5528 3.1865 0.544531 -3.54012 3.18651 0.544525 89.7859 -25.0125 -109.277 27.8825 -5.30802 -16.3614 -1.09722 -28.2524 -20.7851 -31.8567 -0.394545 -6.07437 -78.9678 -59.4417 95.5838 -25.0821 7.29833 9.85003 0.273723 -12.2763 0.260771 -1.53686 -0.0776831 -3.25038 -8.28091 -1.29722 3.44125 -6.44243 -1.29823 -5.99035 
-279.076 92.0644 268.512 -102.616 -40.4388 -97.0767 -175.889 14.4667 93.7429 -10.581 6.30712 -1.67205 57.4085 0.912337 -1.81307 12.9225 -3.78917 5.96755 169.994 -8.55551 86.4539 -27.4542 -21.5766 -2.59021 82.6826 -11.0051 -2.54291 27.9089 -1.85799 5.01167 1.03252 8.30628 -90.4707 10.2703 1.84195 -1.09891 -1.39999 1.79179 -1.17893 -23.944 2.08705 -0.494366 -3.9313 2.08705 -0.49437 89.5216 -28.0822 -108.496 24.3672 -4.55211 -16.0676 -5.33754 -28.5937 -27.7183 -34.4627 -0.127603 -7.15988 -81.7282 -55.7393 91.5835 -27.6887 11.7692 4.36319 -0.923872 -4.11877 -0.00137402 -3.11348 -0.0949161 -2.89991 -3.48366 -0.59453 1.83219 -6.16683 -0.693429 -2.44795 
-274.006 93.3484 262.828 -106.833 -42.6608 -104.993 -174.313 14.2024 89.4018 -24.4215 -10.6549 -4.23875 61.9064 2.7446 -1.23973 14.5514 -1.24591 2.71312 168.318 -4.60455 82.7318 -30.2829 -20.6846 -3.07956 80.8789 -10.052 -2.78265 25.2867 -1.43613 4.01671 0.595544 8.81995 -89.9798 9.23452 1.19682 -0.0465344 -2.43587 1.1936 -0.0991712 -24.9753 1.15546 0.315371 -4.9626 1.15545 0.315351 89.7765 -29.6915 -107.322 27.4462 -4.16005 -9.75298 -1.75491 -28.0332 -23.1994 -36.2235 -0.374591 -6.09897 -83.8205 -51.8128 88.2166 -23.5945 14.0289 -8.30422 -1.16166 3.51279 -0.00173283 1.58904 -0.0993799 -4.62563 -4.68793 -0.800112 -2.02881 -7.30927 -0.558892 -0.816623 
-270.656 93.9748 258.243 -102.609 -44.8727 -101.603 -170.134 17.7214 92.2823 -46.2589 2.65325 -3.78414 68.5926 4.7902 -0.37634 14.91 -1.73204 3.33449 171.343 1.40119 86.3805 -29.5117 -16.737 -3.19327 77.2082 -7.78255 -1.66893 23.5955 -1.02161 3.09601 0.322737 8.27885 -90.0724 10.3166 0.609863 -0.197187 -1.35428 0.600591 -0.223849 -23.8906 0.640941 -0.00477281 -3.87792 0.640938 -0.00477726 90.5082 -28.7195 -106.233 36.2434 -4.57483 -0.96747 3.53633 -19.9527 -15.1924 -27.7559 0.280348 -8.22457 -84.0615 -49.8886 87.6445 -19.7948 11.0136 -16.0389 1.8068 3.15449 -6.0149 4.7747 -0.153862 -5.43142 -9.26267 -0.0962708 -1.9612 -7.69551 0.0205179 0.131164 
-267.2 94.2406 255.128 -102.816 -44.9581 -101.619 -169.367 8.74914 95.5551 -55.6986 9.09621 -0.17284 70.3564 5.62173 0.883564 14.5758 -1.09748 2.52847 171.774 4.47002 86.7104 -28.8749 -17.2573 -3.10803 74.4803 -6.79179 -1.98908 22.612 -0.961502 3.01543 -0.0298079 8.0675 -90.21 10.7393 -0.156113 -0.403509 -0.93165 -0.173727 -0.396245 -23.4664 -0.027646 -0.431769 -3.45374 -0.0276332 -0.431773 91.4638 -28.8931 -104.23 41.1228 -6.16486 6.53066 7.39618 -19.368 -8.26844 -25.5114 0.0598757 -7.48378 -84.2849 -49.0654 87.2079 -20.288 5.55409 -20.5185 5.93515 3.32589 -15.0361 5.22803 -0.325689 -7.81794 -12.238 1.24866 0.557179 -8.78265 1.11978 1.97639 
-263.293 94.2864 252.095 -102.834 -45.7983 -100.784 -169.946 -1.33235 98.4031 -53.0447 11.785 2.72181 68.6349 4.85719 0.595606 15.4135 1.01763 -0.308944 172.596 7.14748 87.5387 -27.3662 -16.2494 -2.7584 70.7044 -5.35192 -1.46279 22.3782 -0.8275 2.72309 -0.524347 7.9687 -90.4184 10.9327 -1.23741 -0.71505 -0.737806 -1.26768 -0.659905 -23.2745 -0.965314 -1.05389 -3.26189 -0.965319 -1.0539 92.2061 -28.326 -102.908 44.6625 -3.81468 12.4935 7.45345 -20.8253 -7.67817 -23.0723 -0.128355 -6.89735 -84.2775 -47.7758 87.0625 -24.2184 1.11588 -26.6111 10.4196 7.36664 -18.8571 3.68008 -0.37646 -9.90853 -13.9175 2.94205 1.65148 -9.61105 2.70813 3.54391 
